<svg xmlns="http://www.w3.org/2000/svg" viewBox="0 0 616.37 609"><defs><style>.cls-1,.cls-5,.cls-6,.cls-7{fill:none;}.cls-2{fill:#2a4670;}.cls-3{clip-path:url(#clip-path);}.cls-4{fill:#fff;}.cls-5,.cls-6{stroke:#fff;}.cls-5,.cls-6,.cls-7{stroke-miterlimit:10;}.cls-5{stroke-width:4px;}.cls-7{stroke:#2a4670;stroke-width:5px;}</style><clipPath id="clip-path"><circle class="cls-1" cx="304.5" cy="304.5" r="304.5"/></clipPath></defs><title>logo</title><circle class="cls-2" cx="304.5" cy="304.5" r="304.5" id="bg"/><g id="cut"><g class="cls-3"><path id="node1" class="cls-4" d="M614.5 375c-2.7-.79-66.71-9.66-83.21-10.61-42.84-2.38-52-4.28-66.32-13.8-17-11.58-18.25-12.06-32.84-13.17-23.64-1.9-39.19-.79-50.77 3.81-23.64 9.52-23.32 9.52-68.23 9.84-24.12.16-44.74 1.11-48.39 2.06a27.37 27.37 0 0 0-10.79 6.66c-3.81 4.28-4.28 6-4.28 15.23 0 10.31.16 10.79 6.82 17.29 9.51 9.69 15.51 10.95 45.05 9.84 13.33-.48 24.28-.63 24.28-.16s-1.9 3.33-4.13 6.19c-3.81 5.08-4.6 5.39-10.79 4.6-3.81-.63-12.85-.16-20.15.79s-24.28 1.75-37.45 1.9l-24.28.16-12.52-11.74c-19.67-18.25-33-23.17-40.3-14.91l-3.33 3.81-8.87-4.45c-16.66-8.41-27.77-7.77-32.69 1.9-3.33 6.51-1.9 10.95 6.82 19.52l7.62 7.46-7.62-5.08c-6.35-4.13-9.36-5.08-16.66-5.24-15.23 0-23.17 6-22.21 17.29.48 5.24 1.11 5.87 11.74 10.63 6 2.86 14.6 8.09 19 11.9 7.3 6.35 11.9 8.25 30 12.69 6.66 1.75 15.71 4.6 44.43 14.6 9.52 3.33 21.74 7.14 27 8.73a114.56 114.56 0 0 1 14.91 5.08c5.71 2.54 39.51 10 46 10 2.06 0 5.71 1.75 8.09 3.81a144.13 144.13 0 0 0 14.76 9.52c14.6 8.09 22.53 7.93 46-1.27 28.4-10.95 42.21-14.91 56.64-16 7.46-.63 25.39-3.49 40-6.35 25.86-5.24 27-5.39 45.22-3.81 10.31 1 23.32 2.7 29 3.81 22.05 4.76 41.11 9.73 44.92 4.49M352.79 368.83"/><path id="node1-2" data-name="node1" class="cls-2" d="M381.35 341.22c-23.64 9.52-23.32 9.52-68.23 9.84-24.12.16-44.74 1.11-48.39 2.06a27.37 27.37 0 0 0-10.79 6.66c-3.81 4.28-4.28 6-4.28 15.23 0 10.31.16 10.79 6.82 17.29 9.52 9.7 15.52 10.96 45.06 9.85 13.33-.48 24.28-.63 24.28-.16s-1.9 3.33-4.13 6.19c-3.81 5.08-4.6 5.39-10.79 4.6-3.81-.63-12.85-.16-20.15.79s-24.28 1.75-37.45 1.9l-24.28.16-12.52-11.74c-19.67-18.25-33-23.17-40.3-14.91l-3.33 3.81-8.87-4.45c-16.66-8.41-27.77-7.77-32.69 1.9-3.33 6.51-1.9 10.95 6.82 19.52l7.62 7.46-7.62-5.08c-6.35-4.13-9.36-5.08-16.66-5.24-15.23 0-23.17 6-22.21 17.29.48 5.24 1.11 5.87 11.74 10.63 6 2.86 14.6 8.09 19 11.9 7.3 6.35 11.9 8.25 30 12.69 6.66 1.75 15.71 4.6 44.43 14.6 9.52 3.33 21.74 7.14 27 8.73a114.56 114.56 0 0 1 14.91 5.08c5.71 2.54 39.51 10 46 10 2.06 0 5.71 1.75 8.09 3.81a144.13 144.13 0 0 0 14.76 9.52c14.6 8.09 22.53 7.93 46-1.27 28.4-10.95 42.21-14.91 56.64-16 7.46-.63 25.39-3.49 40-6.35 25.86-5.24 27-5.39 45.22-3.81 10.31 1 23.32 2.7 29 3.81 22.05 4.76 43.05 10.82 46.86 5.58 1.75-2.7 4.8-5.86 4.8-6.34 0-2.22-41.83-11.46-61.19-13-27.45-2.06-47.28-1-58.71 3.33-12.85 5.08-21.1 6.66-40.46 7.93-19.2 1.43-45.54 8.41-69.81 18.41-19.52 8.09-24.75 7.77-44.43-2.06C294.72 494 291.7 493.06 275 491c-10-1.11-20.79-3.33-23.8-4.76s-10-4.28-15.55-6.51a95.31 95.31 0 0 1-17.45-9.36c-4.13-3-10.15-6.35-13.33-7.3-3.33-1.11-9.36-4.92-13.49-8.73A205 205 0 0 0 174.13 441c-5.24-3.49-10.95-8.41-12.53-10.95-1.59-2.38-8.41-9.84-15.23-16.5-10.47-10-12.53-12.85-12.53-17.14a12.27 12.27 0 0 1 3.17-8.09c5.08-5.08 11.74-4 24.75 4l11.58 7 4.76-4.6c2.54-2.7 6.35-4.76 8.41-4.76 7.3.16 17.93 6.66 29 17.93 8.41 8.73 13 12.06 18.41 13.65a75.3 75.3 0 0 1 15.71 7.3 43.84 43.84 0 0 0 18.72 6.35c23.64 2.7 34.75 8.41 38.87 20.15l2.38 6.82.16-5.24c.16-7.3-3.49-13.65-10.31-17.93-7.77-4.76-5.08-6 16.34-7.3 20-1.11 25.55.79 29.83 9.68 3 6.51 10.31 13.8 10.31 10.31 0-1.27-1.43-4.44-3.17-7-1.75-2.7-3.17-6.66-3.17-9 0-3.81 1.43-5.08 9.68-9.36 5.39-2.54 9.36-5.24 8.89-5.55-.48-.48 4.44-3.65 10.95-7.14A267.16 267.16 0 0 0 405 397.39c14.12-10.15 25.07-15.39 38.24-18.25 6-1.27 6.35-1.59 2.38-1.75-2.7 0-12.06 2.06-20.63 4.92-8.73 2.7-16.34 4.92-17 4.76-.48-.16-2.86 2.22-5.08 5.24a47.71 47.71 0 0 1-11.27 9.52c-7.62 4.6-32.84 13.8-46.81 17.29l-8.73 2.22 12.69.16 12.69.16-6.51 3c-3.65 1.59-7 3.65-7.62 4.6-1.27 2.06-8.25.48-10.63-2.22a5.74 5.74 0 0 0-3.65-2.22c-1.11 0-4-2.06-6.35-4.6l-4.44-4.76 3.65-6c2.06-3.33 7.46-10 11.9-14.91 8.57-9.36 12.53-15.39 11.27-16.82-.48-.48-2.54 1.27-4.6 3.65-10.79 13.17-9.36 12.53-35.38 14.6-25.39 2.06-32.37 1.27-43.79-4.44-8.73-4.44-11.27-9-10.63-19.2.63-12.06 4-14 28.56-17 17-2.22 22.85-2.22 41.89-.48 18.72 1.75 23.17 1.59 29.35-.32l7.46-2.22-4.6 7.77c-2.54 4.28-4.6 8.25-4.6 8.73 0 .63 4.13-3.17 9-8.41 13.65-14.12 24-17.61 55.85-19l24.28-1 12.11 8.43c6.66 4.6 15.39 9.2 19.36 10.15 6.51 1.59 7.46 2.54 11.9 11.11 4.92 10 7.62 8.73 3.33-1.43a28.1 28.1 0 0 1-1.9-5.71c.32 0 7.62 1.43 16.18 3.33 18.41 3.81 92.78 12.74 106.11 11 8.57-1.11 9-1.27 4.6-2.54-2.7-.79-65.81-9.41-82.31-10.36-42.84-2.38-52-4.28-66.32-13.8-17-11.58-18.25-12.06-32.84-13.17-23.63-1.91-39.18-.8-50.76 3.8zm-262.91 69.34a40.6 40.6 0 0 1 16.66 4c4.76 2.22 9.52 4 10.47 4 1.11 0 4.76 4 8.09 8.73a47 47 0 0 0 14.91 14.12c4.92 3 10.31 7.14 12.22 9.2 1.75 2.06 9.84 7.93 17.77 13 8.09 5.08 14.6 9.52 14.6 9.84s-2.7-.48-6-1.9c-7.77-3.33-58.55-19.67-61.09-19.67-1.11 0-6.66-3.65-12.22-8.09a109.68 109.68 0 0 0-20.15-12.85c-11.27-5.24-12.53-8.57-6.66-16.18 2.68-3.57 4.42-4.2 11.4-4.2zm199 8.73c14.44 7.3 14 8.73-2.06 8.73-11.42 0-15.07.63-19.36 3.17-5.08 3.17-5.87 3.17-13.49 1a151.46 151.46 0 0 0-17.29-3.33 53.39 53.39 0 0 1-17.45-5.55l-8.41-4.76h19c14.6 0 18.41.48 17 1.9a8 8 0 0 0-1.9 5.08c0 2.7.63 2.54 4.28-1.9 3.81-4.44 6-5.24 15.55-6.66 15.21-2.13 14.9-2.13 24.1 2.31z"/><path id="node2" class="cls-2" d="M418.16 375c-14.28 12.69-12.06 13.49 3.17 1.11 12.85-10.31 23.17-16.18 28.56-16.34 1.59 0 2.86-.79 2.86-1.59 0-5.85-19.99 3.82-34.59 16.82z"/><path id="node3" class="cls-2" d="M311.86 360.42c-4 2.38-7.3 26.18-4.44 30.78 2.38 4 3.33 1.43 3.33-9.68a125.54 125.54 0 0 1 1.43-16.82c1.1-3.96.94-5.07-.32-4.28z"/><path id="node4" class="cls-2" d="M496.38 393.1c.63 1 11.11 1.59 26.66 1.43 15.87 0 24.43-.63 22.53-1.43-4.57-1.9-50.46-1.9-49.19 0z"/><path id="node5" class="cls-2" d="M494.8 410.08a112.37 112.37 0 0 1 5.08 21.58c1.27 12.38 4.13 9.36 3.33-3.49-.48-9.2-.32-9.84 2.7-8.89 1.75.48 8.57 1.9 15.07 3.33 6.51 1.27 17.61 4.13 24.59 6.19 18.25 5.24 22.53 6.19 20.47 4-3.33-3.33-44.11-16.18-54.26-17l-10-1-3.78-8.21c-2.22-4.6-4-9.36-4-10.63a4.94 4.94 0 0 0-1.27-3.49c-2.85-3.02-1.73 6.03 2.07 17.61z"/><path id="node6" class="cls-2" d="M173.5 401c-2.22 0 6 8.89 13.49 14.28 1.75 1.27 5.55 7.14 8.57 13.17 4.28 8.73 7.14 12.06 15.87 18.56 5.71 4.28 14.91 11.42 20.47 15.71 5.55 4.44 13.33 9.2 17.45 10.63 4.13 1.59 11.42 4.44 16.34 6.35 4.76 2.06 13.8 4.44 19.83 5.55 14 2.38 17.14 3.65 27.13 10.47l8.25 5.71 17.14-1c9.84-.48 20.79-1.9 25.86-3.65l8.73-2.86-6.51-1.43c-4.76-1.11-8.73-.79-15.87 1.27-12.85 3.59-15.55 3.24-31.73-3.76a331.51 331.51 0 0 0-32.37-11.27c-10-2.86-20-6-22.21-7.14a46.74 46.74 0 0 0-10-3c-4.13-.79-9.36-4.13-17.45-11.11-6.35-5.55-14.44-11.58-18.25-13.49-8.25-4.13-18.25-14-21.74-21.1-1.43-2.86-6.66-9-11.58-13.49-4.92-4.56-10.15-8.4-11.42-8.4z"/><path class="cls-2" d="M243.63 407.92c23.1 6.6 46.87 19.18 46.87 19.18s-6.67 23 15.67 23c21.33 0 17-23.34 17-23.34s39.88-22.55 71.67-26.09c28.43-3.17 74.5-20.65 74.5-20.65s1.67.67 1.67-3.67a23.72 23.72 0 0 0-2.33-9s11.33 1 16.33-2.67a46.78 46.78 0 0 0 9-9.33s6.67-70 14.67-109.33S527 155.36 527 155.36s-16 6.86-32.67 13.67c-57.57 23.48-81.5-6.26-119.17-6.26-49 0-33.35 16-67.5 17-43.5 1.33-31.18-14.58-63.17-13.33-42.67 1.67-85.24 21.58-121.43 6.18-25.6-10.9-41.06-8.26-41.06-8.26s20 85 21.67 104 12 89 12 89 7.67 8 16.33 11a36.11 36.11 0 0 0 17 1.33s-4.33 7.33-4.67 9.67a6.21 6.21 0 0 0 1.33 4.33s2.81 1.2 7.51 3z"/><path class="cls-5" d="M243.63 407.92c23.1 6.6 46.87 19.18 46.87 19.18s-6.67 23 15.67 23c21.33 0 17-23.34 17-23.34s39.88-22.55 71.67-26.09c28.43-3.17 74.5-20.65 74.5-20.65s1.67.67 1.67-3.67a23.72 23.72 0 0 0-2.33-9s11.33 1 16.33-2.67a46.78 46.78 0 0 0 9-9.33s6.67-70 14.67-109.33S527 155.36 527 155.36s-16 6.86-32.67 13.67c-57.57 23.48-81.5-6.26-119.17-6.26-49 0-33.35 16-67.5 17-43.5 1.33-31.18-14.58-63.17-13.33-42.67 1.67-85.24 21.58-121.43 6.18-25.6-10.9-41.06-8.26-41.06-8.26s20 85 21.67 104 12 89 12 89 7.67 8 16.33 11a36.11 36.11 0 0 0 17 1.33s-4.33 7.33-4.67 9.67a6.21 6.21 0 0 0 1.33 4.33s2.81 1.2 7.51 3z"/><path class="cls-4" d="M304.5 426.77C296.83 404.1 279.19 397 253.26 395c-32.5-2.5-58-28.5-79-32.5-15.82-3-36.87-4.79-43.2-7.79s-7-7-7-7 .37-43.54-3.3-68.21-24.6-101-24.6-101 27.38 9.5 43.72 11.5 32.29-.5 56.63-5.83S248.31 173.4 259 178c27.88 12 45.48 8.91 43.51 10.12zM308.5 426.77c10.67-21.67 24.08-24 49.53-29.3 31-6.5 34-11.44 54.26-17.89 17.43-5.54 37.64-16.57 44-19.57s25.32-4.52 25.32-4.52 12-93.62 15.71-118.28 15-58.67 15-58.67-22.54-.09-38.46 8.63c-11.47 6.28-25.1 5.07-56.33-.92-16-3.06-34.86-15.47-58.5-7-38.83 13.92-52.42 8.25-52.42 8.25z"/><path class="cls-6" d="M306.58 426.77L304.5 187.5"/><g id="Hand_topclip"><path class="cls-4" d="M252.9 415.39l-24.28.16-12.53-11.74c-19.67-18.25-33-23.17-40.3-14.91l-3.33 3.81-8.89-4.44c-16.66-8.41-27.77-7.77-32.69 1.9-3.33 6.51-1.9 10.95 6.82 19.52l7.62 7.46"/><path class="cls-2" d="M146 413.48c-10.47-10-12.53-12.85-12.53-17.14a12.27 12.27 0 0 1 3.17-8.09c5.08-5.08 11.74-4 24.75 4l11.58 7 4.76-4.6c2.54-2.7 6.35-4.76 8.41-4.76 7.3.16 17.93 6.66 29 17.93 8.41 8.73 13 12.06 18.41 13.65l-4.92-5.87-12.53-11.74c-19.67-18.25-33-23.17-40.3-14.91l-3.33 3.81-8.89-4.44c-16.66-8.41-27.77-7.77-32.69 1.9-3.33 6.51-1.9 10.95 6.82 19.52z"/><path id="node6-2" data-name="node6" class="cls-2" d="M218.24 444c-8.25-4.13-18.25-14-21.74-21.1-1.43-2.86-6.66-9-11.58-13.49-4.92-4.57-10.15-8.41-11.42-8.41-2.22 0 6 8.89 13.49 14.28 1.75 1.27 5.55 7.14 8.57 13.17 4.28 8.73 7.14 12.06 15.87 18.56z"/></g><path class="cls-7" d="M495.38 362c-1.34 1.46-6.15 3.49-7.83 4.79-5 3.84-14.8 3.93-14.8 3.93a41.64 41.64 0 0 1 .85 8.28c0 4.53-1.66 3.84-1.66 3.84s-45.88 18.29-74.19 21.61c-31.65 3.7-71.42 23.55-71.42 23.55s3.67 25.6-19.75 25.6c-25.92 0-20.06-25.6-20.06-25.6a179.22 179.22 0 0 0-27-11.67c-12.3-4.1-38.15-8.26-41.81-9.21"/></g><path class="cls-2" d="M403.65 320H421.85a13.21 13.21 0 0 0 4.07-.67c2.26-.74 3.37-2.48 4-4.62.21-.76.29-1.56.43-2.38h2.17v19h-34.11c0-.57.08-1.13.13-1.69.44-5.08.92-10.16 1.3-15.25a1.77 1.77 0 0 1 1.41-1.87c6.62-2.28 10.67-7.07 12.88-13.57a43.58 43.58 0 0 0 2.06-12.26 57.65 57.65 0 0 0-.29-9.2c-.69-5.85-2.31-11.37-6-16.09-3.28-4.22-7.31-7.56-12.52-9-9.1-2.59-17.17-.74-23.84 6.18a30.59 30.59 0 0 0-7.88 15.82 49.54 49.54 0 0 0-.51 14.27 45.52 45.52 0 0 0 3.22 13.33 19 19 0 0 0 9.09 9.66c.86.45 1.78.8 2.65 1.22a.66.66 0 0 1 .34.43q.58 9 1.13 17.9a.92.92 0 0 1 0 .13h-34.1l-.51-19h2.23c.07.53.11 1.09.22 1.64.67 3.44 2.33 5.11 5.81 5.71a23.21 23.21 0 0 0 3.77.31h16.65v-3.88c0-.11-.32-.27-.51-.31a26.72 26.72 0 0 1-5.44-1.81 35.53 35.53 0 0 1-11.14-8.23 30.55 30.55 0 0 1-8.23-17.56A36.4 36.4 0 0 1 352 270.9a34.85 34.85 0 0 1 9.1-13.54 37.49 37.49 0 0 1 19.19-9.62 53.63 53.63 0 0 1 16-.56 39.14 39.14 0 0 1 19.3 7.19 32.61 32.61 0 0 1 13.31 20.43 39.51 39.51 0 0 1 .55 11.16 34.59 34.59 0 0 1-2.95 11.6 32.43 32.43 0 0 1-12.36 14 36.94 36.94 0 0 1-9.43 4.24.64.64 0 0 0-.54.63c-.17 1.18-.34 2.35-.52 3.57zM266.67 329.71v2.21h-32.75v-2.14c1.35-.2 2.68-.35 4-.6a5.62 5.62 0 0 0 3.59-2 4.93 4.93 0 0 0 .69-4.25 41.79 41.79 0 0 0-2.77-8q-2.16-5.12-4.3-10.24a.65.65 0 0 0-.7-.49h-31.19c-.26 0-.48 0-.62.31-2.1 5-4.24 9.93-6.32 14.91a14.93 14.93 0 0 0-1.22 4.62 4.35 4.35 0 0 0 2.74 4.48 15.89 15.89 0 0 0 4.41 1.06c.79.11 1.59.17 2.42.26v2.24h-25.5c-.44 0-.61-.11-.57-.57s0-1.13 0-1.67c1.1-.26 2.12-.52 3.16-.75a8.45 8.45 0 0 0 5.29-3.66 50.74 50.74 0 0 0 4.75-8.93q14.42-33.82 28.81-67.65c.24-.56.48-1.11.7-1.67a.47.47 0 0 1 .54-.37 7.29 7.29 0 0 0 1.27 0c.41 0 .56.14.7.48q6.32 15.2 12.66 30.39 8 19.15 16 38.29a53 53 0 0 0 4.32 8.49 11.31 11.31 0 0 0 8.73 5.09zm-47.6-63.62l-14.43 33.56h28.53z"/></g></svg>